<mxfile host="app.diagrams.net" agent="Mozilla/5.0 (Windows NT 10.0; Win64; x64) AppleWebKit/537.36 (KHTML, like Gecko) Chrome/135.0.0.0 Safari/537.36 Edg/135.0.0.0" version="26.2.9">
  <diagram name="Page-1" id="aCjut0w4raxFcOA5TNpp">
    <mxGraphModel dx="3666" dy="3591" grid="1" gridSize="10" guides="1" tooltips="1" connect="1" arrows="1" fold="1" page="1" pageScale="1" pageWidth="1654" pageHeight="2336" math="0" shadow="0">
      <root>
        <mxCell id="0" />
        <mxCell id="1" parent="0" />
        <mxCell id="84PaPSI5aTJwHKwBoPMj-1" value="Nhân viên&amp;nbsp; kho" style="shape=umlActor;verticalLabelPosition=bottom;verticalAlign=top;html=1;outlineConnect=0;" parent="1" vertex="1">
          <mxGeometry x="50" y="920" width="30" height="60" as="geometry" />
        </mxCell>
        <mxCell id="84PaPSI5aTJwHKwBoPMj-3" value="s" style="swimlane;startSize=0;" parent="1" vertex="1">
          <mxGeometry x="170" y="-100" width="680" height="1220" as="geometry" />
        </mxCell>
        <mxCell id="84PaPSI5aTJwHKwBoPMj-16" value="Cập nhật kho hàng" style="ellipse;whiteSpace=wrap;html=1;align=center;" parent="84PaPSI5aTJwHKwBoPMj-3" vertex="1">
          <mxGeometry x="50" y="1080" width="100" height="40" as="geometry" />
        </mxCell>
        <mxCell id="84PaPSI5aTJwHKwBoPMj-28" style="edgeStyle=orthogonalEdgeStyle;rounded=0;orthogonalLoop=1;jettySize=auto;html=1;exitX=1;exitY=0.5;exitDx=0;exitDy=0;entryX=0;entryY=0.5;entryDx=0;entryDy=0;dashed=1;" parent="84PaPSI5aTJwHKwBoPMj-3" source="84PaPSI5aTJwHKwBoPMj-17" target="84PaPSI5aTJwHKwBoPMj-18" edge="1">
          <mxGeometry relative="1" as="geometry" />
        </mxCell>
        <mxCell id="84PaPSI5aTJwHKwBoPMj-17" value="Tạo phiếu nhập" style="ellipse;whiteSpace=wrap;html=1;align=center;" parent="84PaPSI5aTJwHKwBoPMj-3" vertex="1">
          <mxGeometry x="40" y="960" width="100" height="40" as="geometry" />
        </mxCell>
        <mxCell id="84PaPSI5aTJwHKwBoPMj-18" value="Nhập chi tiết hàng hóa" style="ellipse;whiteSpace=wrap;html=1;align=center;" parent="84PaPSI5aTJwHKwBoPMj-3" vertex="1">
          <mxGeometry x="200" y="960" width="115" height="40" as="geometry" />
        </mxCell>
        <mxCell id="84PaPSI5aTJwHKwBoPMj-21" value="Kiểm tra hàng tồn" style="ellipse;whiteSpace=wrap;html=1;align=center;" parent="84PaPSI5aTJwHKwBoPMj-3" vertex="1">
          <mxGeometry x="45" y="1020" width="100" height="40" as="geometry" />
        </mxCell>
        <mxCell id="84PaPSI5aTJwHKwBoPMj-22" value="Báo cáo kho" style="ellipse;whiteSpace=wrap;html=1;align=center;" parent="84PaPSI5aTJwHKwBoPMj-3" vertex="1">
          <mxGeometry x="52.5" y="1140" width="100" height="40" as="geometry" />
        </mxCell>
        <mxCell id="84PaPSI5aTJwHKwBoPMj-33" value="Thêm,sửa,xóa nhân&amp;nbsp; viên" style="ellipse;whiteSpace=wrap;html=1;align=center;" parent="84PaPSI5aTJwHKwBoPMj-3" vertex="1">
          <mxGeometry x="35" y="120" width="110" height="40" as="geometry" />
        </mxCell>
        <mxCell id="84PaPSI5aTJwHKwBoPMj-36" value="Quản lí tài khoản" style="ellipse;whiteSpace=wrap;html=1;align=center;" parent="84PaPSI5aTJwHKwBoPMj-3" vertex="1">
          <mxGeometry x="37.5" y="40" width="115" height="40" as="geometry" />
        </mxCell>
        <mxCell id="84PaPSI5aTJwHKwBoPMj-37" value="Quản lí hàng hóa" style="ellipse;whiteSpace=wrap;html=1;align=center;" parent="84PaPSI5aTJwHKwBoPMj-3" vertex="1">
          <mxGeometry x="45" y="180" width="100" height="40" as="geometry" />
        </mxCell>
        <mxCell id="84PaPSI5aTJwHKwBoPMj-38" value="Quản lí nhóm hàng/ngành hàng" style="ellipse;whiteSpace=wrap;html=1;align=center;" parent="84PaPSI5aTJwHKwBoPMj-3" vertex="1">
          <mxGeometry x="32.5" y="230" width="130" height="40" as="geometry" />
        </mxCell>
        <mxCell id="84PaPSI5aTJwHKwBoPMj-39" value="Quản lí nhà cung cấp" style="ellipse;whiteSpace=wrap;html=1;align=center;" parent="84PaPSI5aTJwHKwBoPMj-3" vertex="1">
          <mxGeometry x="47.5" y="290" width="100" height="40" as="geometry" />
        </mxCell>
        <mxCell id="84PaPSI5aTJwHKwBoPMj-40" value="Xem báo cáo" style="ellipse;whiteSpace=wrap;html=1;align=center;" parent="84PaPSI5aTJwHKwBoPMj-3" vertex="1">
          <mxGeometry x="45" y="350" width="100" height="40" as="geometry" />
        </mxCell>
        <mxCell id="84PaPSI5aTJwHKwBoPMj-50" value="Kích hoạt" style="ellipse;whiteSpace=wrap;html=1;align=center;" parent="84PaPSI5aTJwHKwBoPMj-3" vertex="1">
          <mxGeometry x="220" y="10" width="100" height="40" as="geometry" />
        </mxCell>
        <mxCell id="84PaPSI5aTJwHKwBoPMj-51" value="vô hiệu hóa" style="ellipse;whiteSpace=wrap;html=1;align=center;" parent="84PaPSI5aTJwHKwBoPMj-3" vertex="1">
          <mxGeometry x="220" y="80" width="100" height="40" as="geometry" />
        </mxCell>
        <mxCell id="84PaPSI5aTJwHKwBoPMj-52" value="Phân quyền" style="ellipse;whiteSpace=wrap;html=1;align=center;" parent="84PaPSI5aTJwHKwBoPMj-3" vertex="1">
          <mxGeometry x="220" y="140" width="100" height="40" as="geometry" />
        </mxCell>
        <mxCell id="84PaPSI5aTJwHKwBoPMj-55" value="" style="endArrow=none;endFill=0;endSize=12;html=1;rounded=0;exitX=0;exitY=0.5;exitDx=0;exitDy=0;entryX=1;entryY=0.5;entryDx=0;entryDy=0;startFill=0;dashed=1;" parent="84PaPSI5aTJwHKwBoPMj-3" target="84PaPSI5aTJwHKwBoPMj-36" edge="1">
          <mxGeometry width="160" relative="1" as="geometry">
            <mxPoint x="225" y="90" as="sourcePoint" />
            <mxPoint x="325" y="105" as="targetPoint" />
          </mxGeometry>
        </mxCell>
        <mxCell id="84PaPSI5aTJwHKwBoPMj-57" value="Tạo hóa đơn bán" style="ellipse;whiteSpace=wrap;html=1;align=center;" parent="84PaPSI5aTJwHKwBoPMj-3" vertex="1">
          <mxGeometry x="60" y="460" width="100" height="40" as="geometry" />
        </mxCell>
        <mxCell id="84PaPSI5aTJwHKwBoPMj-58" value="Quét&amp;nbsp; mã sản phẩm" style="ellipse;whiteSpace=wrap;html=1;align=center;" parent="84PaPSI5aTJwHKwBoPMj-3" vertex="1">
          <mxGeometry x="60" y="510" width="100" height="40" as="geometry" />
        </mxCell>
        <mxCell id="84PaPSI5aTJwHKwBoPMj-59" value="Tinh&amp;nbsp; tổng tiền" style="ellipse;whiteSpace=wrap;html=1;align=center;" parent="84PaPSI5aTJwHKwBoPMj-3" vertex="1">
          <mxGeometry x="60" y="560" width="100" height="40" as="geometry" />
        </mxCell>
        <mxCell id="84PaPSI5aTJwHKwBoPMj-60" value="Thanh toán" style="ellipse;whiteSpace=wrap;html=1;align=center;" parent="84PaPSI5aTJwHKwBoPMj-3" vertex="1">
          <mxGeometry x="60" y="610" width="100" height="40" as="geometry" />
        </mxCell>
        <mxCell id="84PaPSI5aTJwHKwBoPMj-61" value="In hóa đơn" style="ellipse;whiteSpace=wrap;html=1;align=center;" parent="84PaPSI5aTJwHKwBoPMj-3" vertex="1">
          <mxGeometry x="60" y="710" width="100" height="40" as="geometry" />
        </mxCell>
        <mxCell id="1fLkD347zhgeGTpue6qR-1" value="" style="endArrow=none;endFill=0;endSize=12;html=1;rounded=0;entryX=0.5;entryY=0;entryDx=0;entryDy=0;exitX=0;exitY=0.5;exitDx=0;exitDy=0;startFill=0;dashed=1;" parent="84PaPSI5aTJwHKwBoPMj-3" source="84PaPSI5aTJwHKwBoPMj-50" target="84PaPSI5aTJwHKwBoPMj-36" edge="1">
          <mxGeometry width="160" relative="1" as="geometry">
            <mxPoint x="225" y="50" as="sourcePoint" />
            <mxPoint x="345" y="355" as="targetPoint" />
          </mxGeometry>
        </mxCell>
        <mxCell id="1fLkD347zhgeGTpue6qR-2" value="" style="endArrow=none;endFill=0;endSize=12;html=1;rounded=0;exitX=0;exitY=0.5;exitDx=0;exitDy=0;entryX=0.5;entryY=1;entryDx=0;entryDy=0;startFill=0;dashed=1;" parent="84PaPSI5aTJwHKwBoPMj-3" source="84PaPSI5aTJwHKwBoPMj-52" target="84PaPSI5aTJwHKwBoPMj-36" edge="1">
          <mxGeometry width="160" relative="1" as="geometry">
            <mxPoint x="355" y="335" as="sourcePoint" />
            <mxPoint x="312" y="285" as="targetPoint" />
          </mxGeometry>
        </mxCell>
        <mxCell id="1fLkD347zhgeGTpue6qR-3" value="Đăng nhập" style="ellipse;whiteSpace=wrap;html=1;align=center;" parent="84PaPSI5aTJwHKwBoPMj-3" vertex="1">
          <mxGeometry x="480" y="450" width="100" height="40" as="geometry" />
        </mxCell>
        <mxCell id="1fLkD347zhgeGTpue6qR-7" value="" style="endArrow=none;endFill=1;endSize=12;html=1;rounded=0;exitX=0.5;exitY=1;exitDx=0;exitDy=0;entryX=0.5;entryY=0;entryDx=0;entryDy=0;startFill=0;dashed=1;" parent="84PaPSI5aTJwHKwBoPMj-3" source="84PaPSI5aTJwHKwBoPMj-36" target="84PaPSI5aTJwHKwBoPMj-33" edge="1">
          <mxGeometry width="160" relative="1" as="geometry">
            <mxPoint x="305" y="80" as="sourcePoint" />
            <mxPoint x="465" y="80" as="targetPoint" />
          </mxGeometry>
        </mxCell>
        <mxCell id="Y-nVhfNWOiXduGL-DA_d-12" value="In báo cáo" style="ellipse;whiteSpace=wrap;html=1;align=center;" vertex="1" parent="84PaPSI5aTJwHKwBoPMj-3">
          <mxGeometry x="220" y="350" width="100" height="40" as="geometry" />
        </mxCell>
        <mxCell id="Y-nVhfNWOiXduGL-DA_d-13" value="" style="endArrow=open;endFill=1;endSize=12;html=1;rounded=0;entryX=1;entryY=0.5;entryDx=0;entryDy=0;exitX=0;exitY=0.5;exitDx=0;exitDy=0;dashed=1;" edge="1" parent="84PaPSI5aTJwHKwBoPMj-3" source="Y-nVhfNWOiXduGL-DA_d-12" target="84PaPSI5aTJwHKwBoPMj-40">
          <mxGeometry width="160" relative="1" as="geometry">
            <mxPoint x="150" y="520" as="sourcePoint" />
            <mxPoint x="310" y="520" as="targetPoint" />
          </mxGeometry>
        </mxCell>
        <mxCell id="Y-nVhfNWOiXduGL-DA_d-17" value="Áp dụng khuyến mãi" style="ellipse;whiteSpace=wrap;html=1;align=center;" vertex="1" parent="84PaPSI5aTJwHKwBoPMj-3">
          <mxGeometry x="245" y="460" width="110" height="50" as="geometry" />
        </mxCell>
        <mxCell id="Y-nVhfNWOiXduGL-DA_d-18" value="" style="endArrow=open;endFill=1;endSize=12;html=1;rounded=0;entryX=1;entryY=0.5;entryDx=0;entryDy=0;exitX=0;exitY=0.5;exitDx=0;exitDy=0;dashed=1;" edge="1" parent="84PaPSI5aTJwHKwBoPMj-3" source="Y-nVhfNWOiXduGL-DA_d-17" target="84PaPSI5aTJwHKwBoPMj-57">
          <mxGeometry width="160" relative="1" as="geometry">
            <mxPoint x="420" y="550" as="sourcePoint" />
            <mxPoint x="332" y="550" as="targetPoint" />
          </mxGeometry>
        </mxCell>
        <mxCell id="Y-nVhfNWOiXduGL-DA_d-19" value="Lưu hóa đơn" style="ellipse;whiteSpace=wrap;html=1;align=center;" vertex="1" parent="84PaPSI5aTJwHKwBoPMj-3">
          <mxGeometry x="60" y="660" width="100" height="40" as="geometry" />
        </mxCell>
        <mxCell id="Y-nVhfNWOiXduGL-DA_d-22" value="Trả hàng" style="ellipse;whiteSpace=wrap;html=1;align=center;" vertex="1" parent="84PaPSI5aTJwHKwBoPMj-3">
          <mxGeometry x="250" y="810" width="100" height="40" as="geometry" />
        </mxCell>
        <mxCell id="Y-nVhfNWOiXduGL-DA_d-25" value="Chi tiết hóa đơn trả hàng" style="ellipse;whiteSpace=wrap;html=1;align=center;" vertex="1" parent="84PaPSI5aTJwHKwBoPMj-3">
          <mxGeometry x="320" y="860" width="115" height="60" as="geometry" />
        </mxCell>
        <mxCell id="Y-nVhfNWOiXduGL-DA_d-26" style="edgeStyle=orthogonalEdgeStyle;rounded=0;orthogonalLoop=1;jettySize=auto;html=1;exitX=1;exitY=0.5;exitDx=0;exitDy=0;entryX=0.5;entryY=0;entryDx=0;entryDy=0;dashed=1;" edge="1" parent="84PaPSI5aTJwHKwBoPMj-3" source="Y-nVhfNWOiXduGL-DA_d-22" target="Y-nVhfNWOiXduGL-DA_d-25">
          <mxGeometry relative="1" as="geometry">
            <mxPoint x="430" y="760" as="sourcePoint" />
            <mxPoint x="490" y="760" as="targetPoint" />
          </mxGeometry>
        </mxCell>
        <mxCell id="Y-nVhfNWOiXduGL-DA_d-28" value="Mua hàng" style="ellipse;whiteSpace=wrap;html=1;align=center;" vertex="1" parent="84PaPSI5aTJwHKwBoPMj-3">
          <mxGeometry x="480" y="540" width="100" height="40" as="geometry" />
        </mxCell>
        <mxCell id="Y-nVhfNWOiXduGL-DA_d-31" value="Tra cứu hóa đơn" style="ellipse;whiteSpace=wrap;html=1;align=center;" vertex="1" parent="84PaPSI5aTJwHKwBoPMj-3">
          <mxGeometry x="60" y="770" width="100" height="40" as="geometry" />
        </mxCell>
        <mxCell id="Y-nVhfNWOiXduGL-DA_d-34" value="Xem danh mục sản phẩm cung cấp" style="ellipse;whiteSpace=wrap;html=1;align=center;" vertex="1" parent="84PaPSI5aTJwHKwBoPMj-3">
          <mxGeometry x="500" y="890" width="110" height="50" as="geometry" />
        </mxCell>
        <mxCell id="Y-nVhfNWOiXduGL-DA_d-35" value="Xem yêu cầu báo giá" style="ellipse;whiteSpace=wrap;html=1;align=center;" vertex="1" parent="84PaPSI5aTJwHKwBoPMj-3">
          <mxGeometry x="510" y="960" width="100" height="40" as="geometry" />
        </mxCell>
        <mxCell id="Y-nVhfNWOiXduGL-DA_d-36" value="Gửi báo giá" style="ellipse;whiteSpace=wrap;html=1;align=center;" vertex="1" parent="84PaPSI5aTJwHKwBoPMj-3">
          <mxGeometry x="510" y="1020" width="100" height="40" as="geometry" />
        </mxCell>
        <mxCell id="Y-nVhfNWOiXduGL-DA_d-40" value="Liên hệ với bộ phận mua hàng" style="ellipse;whiteSpace=wrap;html=1;align=center;" vertex="1" parent="84PaPSI5aTJwHKwBoPMj-3">
          <mxGeometry x="505" y="1080" width="105" height="50" as="geometry" />
        </mxCell>
        <mxCell id="84PaPSI5aTJwHKwBoPMj-6" value="Nhân viên bán hàng" style="shape=umlActor;verticalLabelPosition=bottom;verticalAlign=top;html=1;outlineConnect=0;" parent="1" vertex="1">
          <mxGeometry x="60" y="500" width="30" height="60" as="geometry" />
        </mxCell>
        <mxCell id="84PaPSI5aTJwHKwBoPMj-7" value="Quản lí" style="shape=umlActor;verticalLabelPosition=bottom;verticalAlign=top;html=1;outlineConnect=0;" parent="1" vertex="1">
          <mxGeometry x="60" y="120" width="30" height="60" as="geometry" />
        </mxCell>
        <mxCell id="84PaPSI5aTJwHKwBoPMj-8" value="Nhà cung cấp" style="shape=umlActor;verticalLabelPosition=bottom;verticalAlign=top;html=1;outlineConnect=0;" parent="1" vertex="1">
          <mxGeometry x="910" y="880" width="30" height="60" as="geometry" />
        </mxCell>
        <mxCell id="84PaPSI5aTJwHKwBoPMj-9" value="Khách hàng" style="shape=umlActor;verticalLabelPosition=bottom;verticalAlign=top;html=1;outlineConnect=0;" parent="1" vertex="1">
          <mxGeometry x="910" y="420" width="30" height="60" as="geometry" />
        </mxCell>
        <mxCell id="84PaPSI5aTJwHKwBoPMj-24" value="" style="endArrow=none;endFill=1;endSize=12;html=1;rounded=0;exitX=0.5;exitY=0.5;exitDx=0;exitDy=0;exitPerimeter=0;entryX=0;entryY=0.5;entryDx=0;entryDy=0;startFill=0;" parent="1" source="84PaPSI5aTJwHKwBoPMj-1" target="84PaPSI5aTJwHKwBoPMj-17" edge="1">
          <mxGeometry width="160" relative="1" as="geometry">
            <mxPoint x="410" y="60" as="sourcePoint" />
            <mxPoint x="570" y="60" as="targetPoint" />
          </mxGeometry>
        </mxCell>
        <mxCell id="84PaPSI5aTJwHKwBoPMj-26" value="" style="endArrow=none;endFill=1;endSize=12;html=1;rounded=0;exitX=0.5;exitY=0.5;exitDx=0;exitDy=0;exitPerimeter=0;entryX=0;entryY=0.5;entryDx=0;entryDy=0;startFill=0;" parent="1" source="84PaPSI5aTJwHKwBoPMj-1" target="84PaPSI5aTJwHKwBoPMj-16" edge="1">
          <mxGeometry width="160" relative="1" as="geometry">
            <mxPoint x="410" y="60" as="sourcePoint" />
            <mxPoint x="570" y="60" as="targetPoint" />
          </mxGeometry>
        </mxCell>
        <mxCell id="84PaPSI5aTJwHKwBoPMj-27" value="" style="endArrow=none;endFill=1;endSize=12;html=1;rounded=0;exitX=0.5;exitY=0.5;exitDx=0;exitDy=0;exitPerimeter=0;entryX=0;entryY=0.5;entryDx=0;entryDy=0;startFill=0;" parent="1" source="84PaPSI5aTJwHKwBoPMj-1" target="84PaPSI5aTJwHKwBoPMj-21" edge="1">
          <mxGeometry width="160" relative="1" as="geometry">
            <mxPoint x="410" y="60" as="sourcePoint" />
            <mxPoint x="570" y="60" as="targetPoint" />
          </mxGeometry>
        </mxCell>
        <mxCell id="84PaPSI5aTJwHKwBoPMj-32" value="" style="endArrow=none;endFill=1;endSize=12;html=1;rounded=0;exitX=0.5;exitY=0.5;exitDx=0;exitDy=0;exitPerimeter=0;entryX=0;entryY=0.5;entryDx=0;entryDy=0;startFill=0;" parent="1" source="84PaPSI5aTJwHKwBoPMj-1" target="84PaPSI5aTJwHKwBoPMj-22" edge="1">
          <mxGeometry width="160" relative="1" as="geometry">
            <mxPoint x="420" y="-20" as="sourcePoint" />
            <mxPoint x="580" y="-20" as="targetPoint" />
          </mxGeometry>
        </mxCell>
        <mxCell id="84PaPSI5aTJwHKwBoPMj-42" value="" style="endArrow=none;endFill=1;endSize=12;html=1;rounded=0;exitX=0.5;exitY=0.5;exitDx=0;exitDy=0;exitPerimeter=0;entryX=0;entryY=0.5;entryDx=0;entryDy=0;startFill=0;" parent="1" source="84PaPSI5aTJwHKwBoPMj-7" target="84PaPSI5aTJwHKwBoPMj-36" edge="1">
          <mxGeometry width="160" relative="1" as="geometry">
            <mxPoint x="420" y="410" as="sourcePoint" />
            <mxPoint x="580" y="410" as="targetPoint" />
          </mxGeometry>
        </mxCell>
        <mxCell id="84PaPSI5aTJwHKwBoPMj-43" value="" style="endArrow=none;endFill=1;endSize=12;html=1;rounded=0;exitX=0.5;exitY=0.5;exitDx=0;exitDy=0;exitPerimeter=0;entryX=0;entryY=0.5;entryDx=0;entryDy=0;startFill=0;" parent="1" source="84PaPSI5aTJwHKwBoPMj-7" target="84PaPSI5aTJwHKwBoPMj-37" edge="1">
          <mxGeometry width="160" relative="1" as="geometry">
            <mxPoint x="420" y="410" as="sourcePoint" />
            <mxPoint x="580" y="410" as="targetPoint" />
          </mxGeometry>
        </mxCell>
        <mxCell id="84PaPSI5aTJwHKwBoPMj-44" value="" style="endArrow=none;endFill=1;endSize=12;html=1;rounded=0;exitX=0.5;exitY=0.5;exitDx=0;exitDy=0;exitPerimeter=0;entryX=0;entryY=0.5;entryDx=0;entryDy=0;startFill=0;" parent="1" source="84PaPSI5aTJwHKwBoPMj-7" target="84PaPSI5aTJwHKwBoPMj-38" edge="1">
          <mxGeometry width="160" relative="1" as="geometry">
            <mxPoint x="420" y="410" as="sourcePoint" />
            <mxPoint x="580" y="410" as="targetPoint" />
          </mxGeometry>
        </mxCell>
        <mxCell id="84PaPSI5aTJwHKwBoPMj-45" value="" style="endArrow=none;endFill=1;endSize=12;html=1;rounded=0;exitX=0.5;exitY=0.5;exitDx=0;exitDy=0;exitPerimeter=0;entryX=0;entryY=0.5;entryDx=0;entryDy=0;startFill=0;" parent="1" source="84PaPSI5aTJwHKwBoPMj-7" target="84PaPSI5aTJwHKwBoPMj-39" edge="1">
          <mxGeometry width="160" relative="1" as="geometry">
            <mxPoint x="420" y="410" as="sourcePoint" />
            <mxPoint x="580" y="410" as="targetPoint" />
          </mxGeometry>
        </mxCell>
        <mxCell id="84PaPSI5aTJwHKwBoPMj-46" value="" style="endArrow=none;endFill=1;endSize=12;html=1;rounded=0;exitX=0.5;exitY=0.5;exitDx=0;exitDy=0;exitPerimeter=0;entryX=0;entryY=0.5;entryDx=0;entryDy=0;startFill=0;" parent="1" source="84PaPSI5aTJwHKwBoPMj-7" target="84PaPSI5aTJwHKwBoPMj-40" edge="1">
          <mxGeometry width="160" relative="1" as="geometry">
            <mxPoint x="420" y="410" as="sourcePoint" />
            <mxPoint x="580" y="410" as="targetPoint" />
          </mxGeometry>
        </mxCell>
        <mxCell id="Y-nVhfNWOiXduGL-DA_d-4" value="" style="endArrow=none;endFill=1;endSize=12;html=1;rounded=0;exitX=0.5;exitY=0.5;exitDx=0;exitDy=0;exitPerimeter=0;entryX=0;entryY=0.5;entryDx=0;entryDy=0;startFill=0;" edge="1" parent="1" source="84PaPSI5aTJwHKwBoPMj-6" target="84PaPSI5aTJwHKwBoPMj-57">
          <mxGeometry width="160" relative="1" as="geometry">
            <mxPoint x="370" y="600" as="sourcePoint" />
            <mxPoint x="530" y="600" as="targetPoint" />
          </mxGeometry>
        </mxCell>
        <mxCell id="Y-nVhfNWOiXduGL-DA_d-5" value="" style="endArrow=none;endFill=1;endSize=12;html=1;rounded=0;exitX=0.5;exitY=0.5;exitDx=0;exitDy=0;exitPerimeter=0;entryX=0;entryY=0.5;entryDx=0;entryDy=0;startFill=0;" edge="1" parent="1" source="84PaPSI5aTJwHKwBoPMj-6" target="84PaPSI5aTJwHKwBoPMj-58">
          <mxGeometry width="160" relative="1" as="geometry">
            <mxPoint x="480" y="590" as="sourcePoint" />
            <mxPoint x="650" y="500" as="targetPoint" />
          </mxGeometry>
        </mxCell>
        <mxCell id="Y-nVhfNWOiXduGL-DA_d-6" value="" style="endArrow=none;endFill=1;endSize=12;html=1;rounded=0;exitX=0.5;exitY=0.5;exitDx=0;exitDy=0;exitPerimeter=0;entryX=0;entryY=0.5;entryDx=0;entryDy=0;startFill=0;" edge="1" parent="1" source="84PaPSI5aTJwHKwBoPMj-6" target="84PaPSI5aTJwHKwBoPMj-59">
          <mxGeometry width="160" relative="1" as="geometry">
            <mxPoint x="610" y="540" as="sourcePoint" />
            <mxPoint x="780" y="450" as="targetPoint" />
          </mxGeometry>
        </mxCell>
        <mxCell id="Y-nVhfNWOiXduGL-DA_d-7" value="" style="endArrow=none;endFill=1;endSize=12;html=1;rounded=0;exitX=0.5;exitY=0.5;exitDx=0;exitDy=0;exitPerimeter=0;entryX=0;entryY=0.5;entryDx=0;entryDy=0;startFill=0;" edge="1" parent="1" source="84PaPSI5aTJwHKwBoPMj-6" target="84PaPSI5aTJwHKwBoPMj-60">
          <mxGeometry width="160" relative="1" as="geometry">
            <mxPoint x="500" y="520" as="sourcePoint" />
            <mxPoint x="670" y="430" as="targetPoint" />
          </mxGeometry>
        </mxCell>
        <mxCell id="Y-nVhfNWOiXduGL-DA_d-8" value="" style="endArrow=none;endFill=1;endSize=12;html=1;rounded=0;exitX=0.5;exitY=0.5;exitDx=0;exitDy=0;exitPerimeter=0;entryX=0;entryY=0.5;entryDx=0;entryDy=0;startFill=0;" edge="1" parent="1" source="84PaPSI5aTJwHKwBoPMj-6" target="84PaPSI5aTJwHKwBoPMj-61">
          <mxGeometry width="160" relative="1" as="geometry">
            <mxPoint x="530" y="560" as="sourcePoint" />
            <mxPoint x="700" y="470" as="targetPoint" />
          </mxGeometry>
        </mxCell>
        <mxCell id="Y-nVhfNWOiXduGL-DA_d-10" value="" style="endArrow=none;endFill=1;endSize=12;html=1;rounded=0;exitX=0.5;exitY=0.5;exitDx=0;exitDy=0;exitPerimeter=0;entryX=0;entryY=1;entryDx=0;entryDy=0;startFill=0;" edge="1" parent="1" source="84PaPSI5aTJwHKwBoPMj-1" target="1fLkD347zhgeGTpue6qR-3">
          <mxGeometry width="160" relative="1" as="geometry">
            <mxPoint x="520" y="700" as="sourcePoint" />
            <mxPoint x="690" y="610" as="targetPoint" />
            <Array as="points">
              <mxPoint x="380" y="670" />
            </Array>
          </mxGeometry>
        </mxCell>
        <mxCell id="Y-nVhfNWOiXduGL-DA_d-14" style="edgeStyle=orthogonalEdgeStyle;rounded=0;orthogonalLoop=1;jettySize=auto;html=1;exitX=0.5;exitY=0.5;exitDx=0;exitDy=0;exitPerimeter=0;entryX=0.25;entryY=0.1;entryDx=0;entryDy=0;entryPerimeter=0;endArrow=none;startFill=0;" edge="1" parent="1" target="84PaPSI5aTJwHKwBoPMj-1">
          <mxGeometry relative="1" as="geometry">
            <mxPoint x="60" y="150" as="sourcePoint" />
            <mxPoint x="35" y="939.9999999999995" as="targetPoint" />
            <Array as="points">
              <mxPoint x="-15" y="150" />
              <mxPoint x="-15" y="940" />
              <mxPoint x="58" y="940" />
            </Array>
          </mxGeometry>
        </mxCell>
        <mxCell id="Y-nVhfNWOiXduGL-DA_d-15" style="edgeStyle=orthogonalEdgeStyle;rounded=0;orthogonalLoop=1;jettySize=auto;html=1;exitX=0.5;exitY=0.5;exitDx=0;exitDy=0;exitPerimeter=0;entryX=0.5;entryY=0;entryDx=0;entryDy=0;entryPerimeter=0;endArrow=none;startFill=0;" edge="1" parent="1" source="84PaPSI5aTJwHKwBoPMj-7" target="84PaPSI5aTJwHKwBoPMj-6">
          <mxGeometry relative="1" as="geometry">
            <Array as="points">
              <mxPoint x="40" y="150" />
              <mxPoint x="40" y="500" />
            </Array>
          </mxGeometry>
        </mxCell>
        <mxCell id="Y-nVhfNWOiXduGL-DA_d-20" value="" style="endArrow=none;endFill=1;endSize=12;html=1;rounded=0;exitX=0.5;exitY=0.5;exitDx=0;exitDy=0;exitPerimeter=0;entryX=0;entryY=0.5;entryDx=0;entryDy=0;startFill=0;" edge="1" parent="1" source="84PaPSI5aTJwHKwBoPMj-6" target="Y-nVhfNWOiXduGL-DA_d-19">
          <mxGeometry width="160" relative="1" as="geometry">
            <mxPoint x="420" y="590" as="sourcePoint" />
            <mxPoint x="588" y="620" as="targetPoint" />
          </mxGeometry>
        </mxCell>
        <mxCell id="Y-nVhfNWOiXduGL-DA_d-23" value="" style="endArrow=none;endFill=1;endSize=12;html=1;rounded=0;exitX=0.5;exitY=0.5;exitDx=0;exitDy=0;exitPerimeter=0;entryX=0;entryY=0.5;entryDx=0;entryDy=0;startFill=0;" edge="1" parent="1" source="84PaPSI5aTJwHKwBoPMj-6" target="Y-nVhfNWOiXduGL-DA_d-22">
          <mxGeometry width="160" relative="1" as="geometry">
            <mxPoint x="520" y="570" as="sourcePoint" />
            <mxPoint x="688" y="540" as="targetPoint" />
            <Array as="points">
              <mxPoint x="240" y="730" />
            </Array>
          </mxGeometry>
        </mxCell>
        <mxCell id="Y-nVhfNWOiXduGL-DA_d-24" value="" style="endArrow=none;endFill=1;endSize=12;html=1;rounded=0;exitX=0.5;exitY=0.5;exitDx=0;exitDy=0;exitPerimeter=0;entryX=0;entryY=1;entryDx=0;entryDy=0;startFill=0;" edge="1" parent="1" source="84PaPSI5aTJwHKwBoPMj-1" target="Y-nVhfNWOiXduGL-DA_d-22">
          <mxGeometry width="160" relative="1" as="geometry">
            <mxPoint x="490" y="780" as="sourcePoint" />
            <mxPoint x="658" y="750" as="targetPoint" />
          </mxGeometry>
        </mxCell>
        <mxCell id="Y-nVhfNWOiXduGL-DA_d-27" value="" style="endArrow=none;endFill=1;endSize=12;html=1;rounded=0;exitX=1;exitY=0.5;exitDx=0;exitDy=0;entryX=0.5;entryY=0.5;entryDx=0;entryDy=0;startFill=0;entryPerimeter=0;" edge="1" parent="1" source="1fLkD347zhgeGTpue6qR-3" target="84PaPSI5aTJwHKwBoPMj-9">
          <mxGeometry width="160" relative="1" as="geometry">
            <mxPoint x="630" y="370" as="sourcePoint" />
            <mxPoint x="795" y="220" as="targetPoint" />
          </mxGeometry>
        </mxCell>
        <mxCell id="Y-nVhfNWOiXduGL-DA_d-29" value="" style="endArrow=none;endFill=1;endSize=12;html=1;rounded=0;entryX=0.5;entryY=0.5;entryDx=0;entryDy=0;startFill=0;entryPerimeter=0;exitX=1;exitY=0.5;exitDx=0;exitDy=0;" edge="1" parent="1" source="Y-nVhfNWOiXduGL-DA_d-28" target="84PaPSI5aTJwHKwBoPMj-9">
          <mxGeometry width="160" relative="1" as="geometry">
            <mxPoint x="650" y="410" as="sourcePoint" />
            <mxPoint x="980" y="330" as="targetPoint" />
          </mxGeometry>
        </mxCell>
        <mxCell id="Y-nVhfNWOiXduGL-DA_d-30" value="" style="endArrow=none;endFill=1;endSize=12;html=1;rounded=0;exitX=1;exitY=0;exitDx=0;exitDy=0;entryX=0.5;entryY=0.5;entryDx=0;entryDy=0;startFill=0;entryPerimeter=0;" edge="1" parent="1" source="Y-nVhfNWOiXduGL-DA_d-22" target="84PaPSI5aTJwHKwBoPMj-9">
          <mxGeometry width="160" relative="1" as="geometry">
            <mxPoint x="610" y="620" as="sourcePoint" />
            <mxPoint x="940" y="540" as="targetPoint" />
          </mxGeometry>
        </mxCell>
        <mxCell id="Y-nVhfNWOiXduGL-DA_d-32" value="" style="endArrow=none;endFill=1;endSize=12;html=1;rounded=0;exitX=0.5;exitY=0.5;exitDx=0;exitDy=0;exitPerimeter=0;entryX=0.5;entryY=0;entryDx=0;entryDy=0;startFill=0;" edge="1" parent="1" source="84PaPSI5aTJwHKwBoPMj-6" target="1fLkD347zhgeGTpue6qR-3">
          <mxGeometry width="160" relative="1" as="geometry">
            <mxPoint x="520" y="310" as="sourcePoint" />
            <mxPoint x="685" y="160" as="targetPoint" />
            <Array as="points">
              <mxPoint x="230" y="350" />
            </Array>
          </mxGeometry>
        </mxCell>
        <mxCell id="Y-nVhfNWOiXduGL-DA_d-33" value="" style="endArrow=none;endFill=1;endSize=12;html=1;rounded=0;exitX=0.5;exitY=0.5;exitDx=0;exitDy=0;exitPerimeter=0;entryX=0;entryY=0.5;entryDx=0;entryDy=0;startFill=0;" edge="1" parent="1" source="84PaPSI5aTJwHKwBoPMj-6" target="Y-nVhfNWOiXduGL-DA_d-31">
          <mxGeometry width="160" relative="1" as="geometry">
            <mxPoint x="430" y="490" as="sourcePoint" />
            <mxPoint x="595" y="590" as="targetPoint" />
          </mxGeometry>
        </mxCell>
        <mxCell id="Y-nVhfNWOiXduGL-DA_d-37" value="" style="endArrow=none;endFill=1;endSize=12;html=1;rounded=0;exitX=1;exitY=0.5;exitDx=0;exitDy=0;entryX=0.5;entryY=0.5;entryDx=0;entryDy=0;startFill=0;entryPerimeter=0;" edge="1" parent="1" source="Y-nVhfNWOiXduGL-DA_d-34" target="84PaPSI5aTJwHKwBoPMj-8">
          <mxGeometry width="160" relative="1" as="geometry">
            <mxPoint x="640" y="1000" as="sourcePoint" />
            <mxPoint x="805" y="1050" as="targetPoint" />
          </mxGeometry>
        </mxCell>
        <mxCell id="Y-nVhfNWOiXduGL-DA_d-38" value="" style="endArrow=none;endFill=1;endSize=12;html=1;rounded=0;exitX=1;exitY=0.5;exitDx=0;exitDy=0;entryX=0.5;entryY=0.5;entryDx=0;entryDy=0;startFill=0;entryPerimeter=0;" edge="1" parent="1" source="Y-nVhfNWOiXduGL-DA_d-35" target="84PaPSI5aTJwHKwBoPMj-8">
          <mxGeometry width="160" relative="1" as="geometry">
            <mxPoint x="690" y="1000" as="sourcePoint" />
            <mxPoint x="825" y="1095" as="targetPoint" />
          </mxGeometry>
        </mxCell>
        <mxCell id="Y-nVhfNWOiXduGL-DA_d-39" value="" style="endArrow=none;endFill=1;endSize=12;html=1;rounded=0;exitX=1;exitY=0.5;exitDx=0;exitDy=0;entryX=0.5;entryY=0.5;entryDx=0;entryDy=0;startFill=0;entryPerimeter=0;" edge="1" parent="1" source="Y-nVhfNWOiXduGL-DA_d-36" target="84PaPSI5aTJwHKwBoPMj-8">
          <mxGeometry width="160" relative="1" as="geometry">
            <mxPoint x="650" y="1010" as="sourcePoint" />
            <mxPoint x="795" y="1105" as="targetPoint" />
          </mxGeometry>
        </mxCell>
        <mxCell id="Y-nVhfNWOiXduGL-DA_d-41" value="" style="endArrow=none;endFill=1;endSize=12;html=1;rounded=0;exitX=1;exitY=0.5;exitDx=0;exitDy=0;entryX=0.5;entryY=0.5;entryDx=0;entryDy=0;startFill=0;entryPerimeter=0;" edge="1" parent="1" source="Y-nVhfNWOiXduGL-DA_d-40" target="84PaPSI5aTJwHKwBoPMj-8">
          <mxGeometry width="160" relative="1" as="geometry">
            <mxPoint x="490" y="940" as="sourcePoint" />
            <mxPoint x="635" y="910" as="targetPoint" />
          </mxGeometry>
        </mxCell>
        <mxCell id="Y-nVhfNWOiXduGL-DA_d-42" value="" style="endArrow=none;endFill=1;endSize=12;html=1;rounded=0;exitX=1;exitY=0;exitDx=0;exitDy=0;entryX=0.5;entryY=0.5;entryDx=0;entryDy=0;startFill=0;entryPerimeter=0;" edge="1" parent="1" source="Y-nVhfNWOiXduGL-DA_d-22" target="84PaPSI5aTJwHKwBoPMj-8">
          <mxGeometry width="160" relative="1" as="geometry">
            <mxPoint x="710" y="720" as="sourcePoint" />
            <mxPoint x="855" y="690" as="targetPoint" />
            <Array as="points">
              <mxPoint x="770" y="780" />
            </Array>
          </mxGeometry>
        </mxCell>
      </root>
    </mxGraphModel>
  </diagram>
</mxfile>
